<?xml version="1.0" encoding="UTF-8"?>
<svg id="_图层_1" data-name=" 图层 1" xmlns="http://www.w3.org/2000/svg" viewBox="0 0 336.89 38.55">
  <defs>
    <style>
      .cls-1 {
        fill: #0a2b6f;
      }
    </style>
  </defs>
  <path class="cls-1" d="M19.9,24.25c0,2.6-1.1,4.6-3.3,6-1.9,1.2-4.2,1.7-6.9,1.7s-5.2-.6-6.8-1.8c-1.9-1.4-2.9-3.4-2.9-6.2h5.3c0,2.8,1.6,4.2,4.5,4.2s2.3-.3,3.1-.9c1-.7,1.5-1.6,1.5-2.7s-.7-2-2.1-2.6c-1-.3-2.4-.7-4.3-1.3-2.4-.7-4.1-1.5-5.1-2.2-1.6-1.2-2.4-2.8-2.4-4.8s1-4.3,3.1-5.6c1.8-1.1,4-1.6,6.6-1.6,5.9,0,8.9,2.4,9,7.1h-5.3c-.2-2.4-1.6-3.5-4-3.5s-2,.3-2.7.8c-.8.6-1.2,1.4-1.2,2.4s.3,1.3.8,1.7,1.8.9,3.7,1.6c1.4.4,2.7.9,4.1,1.3,1.8.7,3.1,1.4,3.9,2.2,1,1,1.5,2.4,1.5,4.2h-.1Z"/>
  <path class="cls-1" d="M40,25.35c0,2.2-.9,3.8-2.6,5-1.5,1-3.4,1.5-5.7,1.5s-5-.8-6.6-2.3-2.3-3.7-2.3-6.5.8-5.1,2.4-6.7c1.6-1.7,3.8-2.5,6.7-2.5s4.1.5,5.4,1.5c1.5,1.1,2.4,2.7,2.6,4.9h-4.9c0-2.3-1.1-3.4-3.1-3.4s-3.9,2-3.9,6,1.3,6.1,3.8,6.1,3.1-1.2,3.2-3.7h5.1v.2h0l-.1-.1Z"/>
  <path class="cls-1" d="M48.8,10.85h-5.2v-3.9h5.2v4-.1ZM48.7,31.55h-5V14.35h5v17.2Z"/>
  <path class="cls-1" d="M69.8,23.95h-12.4c0,1.4.3,2.6.9,3.5.7,1,1.7,1.6,3.1,1.6,2,0,3.2-1,3.4-3h4.8c-.3,2.1-1.3,3.6-2.9,4.6-1.4.9-3.2,1.3-5.4,1.3s-4.9-.7-6.5-2.2-2.3-3.6-2.3-6.4.8-5.2,2.3-6.8,3.7-2.5,6.6-2.5,6.3,1.5,7.6,4.6c.5,1.2.7,3,.7,5.4h0l.1-.1ZM65,21.05c0-2.8-1.2-4.2-3.6-4.2s-2.2.4-2.9,1.2-1.1,1.8-1.1,3h7.6Z"/>
  <path class="cls-1" d="M90.4,31.55h-5v-9.1c0-1.6-.2-2.7-.5-3.4-.5-1.1-1.4-1.6-2.8-1.6s-2.3.7-3,2c-.4.9-.6,2.1-.6,3.4v8.6h-5v-13.8c0-1.2,0-2.3-.1-3.4h4.9v2.6c1.6-1.9,3.5-2.9,5.7-2.9,4.2,0,6.3,2.1,6.3,6.3v11.1h0l.1.2Z"/>
  <path class="cls-1" d="M111.1,25.35c0,2.2-.9,3.8-2.6,5-1.5,1-3.4,1.5-5.7,1.5s-5-.8-6.6-2.3-2.3-3.7-2.3-6.5.8-5.1,2.4-6.7c1.6-1.7,3.8-2.5,6.7-2.5s4.1.5,5.4,1.5c1.5,1.1,2.4,2.7,2.6,4.9h-4.9c0-2.3-1.1-3.4-3.1-3.4s-3.9,2-3.9,6,1.3,6.1,3.8,6.1,3.1-1.2,3.2-3.7h5.1v.2h0l-.1-.1Z"/>
  <path class="cls-1" d="M131.2,23.95h-12.4c0,1.4.3,2.6.9,3.5.7,1,1.7,1.6,3.1,1.6,2,0,3.2-1,3.4-3h4.8c-.3,2.1-1.3,3.6-2.9,4.6-1.4.9-3.2,1.3-5.4,1.3s-4.9-.7-6.5-2.2-2.3-3.6-2.3-6.4.8-5.2,2.3-6.8c1.5-1.7,3.7-2.5,6.6-2.5s6.3,1.5,7.6,4.6c.5,1.2.7,3,.7,5.4h0l.1-.1ZM126.4,21.05c0-2.8-1.2-4.2-3.6-4.2s-2.2.4-2.9,1.2c-.7.8-1.1,1.8-1.1,3h7.6Z"/>
  <path class="cls-1" d="M158.2,22.85c0,2.8-.8,5.1-2.5,6.6-1.7,1.6-4,2.4-6.8,2.4s-5.2-.8-6.8-2.4c-1.7-1.6-2.5-3.8-2.5-6.7s.9-5,2.6-6.6c1.7-1.6,4-2.4,6.8-2.4s5.1.8,6.8,2.4c1.6,1.6,2.5,3.8,2.5,6.6h0l-.1.1ZM153,22.95c0-1.7-.3-3-.9-4.1-.7-1.3-1.8-2-3.3-2-2.7,0-4.1,2-4.1,6s1.4,6.1,4.1,6.1,2.6-.7,3.3-2c.6-1.1.9-2.4.9-4.1v.1Z"/>
  <path class="cls-1" d="M172.3,10.25h-1.6c-1.1,0-1.8.3-2.1.7s-.4,1.1-.4,2v1.4h4v3.3h-4v13.9h-5v-13.9h-3.3v-3.3h3.3v-1.4c0-4.1,2-6.1,5.9-6.1s1.9,0,3.3.2v3.3h0l-.1-.1Z"/>
  <path class="cls-1" d="M204.2,19.15c0,4.7-1.4,8-4.1,9.9-2.3,1.7-5.8,2.5-10.5,2.5h-7.7V6.95h8.5c9.1,0,13.7,4.1,13.7,12.2h.1ZM198.7,19.15c0-3-.7-5.2-2.1-6.5-1.4-1.3-3.6-2-6.6-2h-2.7v17.1h2.5c3.1,0,5.3-.7,6.7-2.1s2.1-3.5,2.1-6.5h.1Z"/>
  <path class="cls-1" d="M224.2,23.95h-12.4c0,1.4.3,2.6.9,3.5.7,1,1.7,1.6,3.1,1.6,2,0,3.2-1,3.4-3h4.8c-.3,2.1-1.3,3.6-2.9,4.6-1.4.9-3.2,1.3-5.4,1.3s-4.9-.7-6.5-2.2-2.3-3.6-2.3-6.4.8-5.2,2.3-6.8c1.5-1.7,3.7-2.5,6.6-2.5s6.3,1.5,7.6,4.6c.5,1.2.7,3,.7,5.4h0l.1-.1ZM219.4,21.05c0-2.8-1.2-4.2-3.6-4.2s-2.2.4-2.9,1.2-1.1,1.8-1.1,3h7.6Z"/>
  <path class="cls-1" d="M242.8,26.45c0,2-.9,3.5-2.7,4.5-1.4.7-3.2,1.1-5.4,1.1-5.1,0-7.7-2-7.7-5.9h5c0,2,1,3.1,2.9,3.1s1.4-.2,2-.6.9-1,.9-1.7c0-1.1-1.1-1.9-3.3-2.4-2.5-.6-4.1-1.1-4.6-1.4-1.6-.8-2.4-2.1-2.4-3.9s.8-3.2,2.5-4.1c1.3-.7,2.9-1.1,4.9-1.1,4.7,0,7.2,1.9,7.4,5.6h-4.9c0-1.8-.9-2.8-2.6-2.8s-1.3.1-1.7.4c-.6.3-.9.8-.9,1.5,0,1,1.1,1.8,3.3,2.3,2.5.6,4.1,1.1,4.8,1.4,1.7.8,2.5,2.2,2.5,4h0Z"/>
  <path class="cls-1" d="M252,11.05h-5.2v-4h5.2v4ZM251.9,31.65h-5V14.45h5v17.2Z"/>
  <path class="cls-1" d="M273.8,14.55c0,2.6-.1,4.2-.1,4.8v9.2c0,3.4-.7,5.9-2.1,7.5s-3.7,2.5-6.9,2.5-4-.3-5.3-1c-1.8-.9-2.7-2.3-2.7-4.3v-.3h4.7c0,1.7,1.2,2.6,3.4,2.6s2.6-.4,3.2-1.3c.5-.7.8-1.8.9-3.3v-2.4c-1.3,1.9-3.1,2.9-5.5,2.9s-4.3-.8-5.7-2.5c-1.2-1.5-1.9-3.6-1.9-6.1s.6-4.5,1.9-6.1c1.4-1.7,3.3-2.6,5.7-2.6s4.4,1,5.7,3v-2.6h4.8-.1ZM268.8,22.55c0-1.5-.3-2.7-.9-3.6-.7-1.2-1.7-1.8-3.1-1.8s-2.5.6-3.2,1.8c-.6,1-.9,2.2-.9,3.8s.3,2.8.8,3.7c.7,1.2,1.7,1.8,3.1,1.8s2.5-.6,3.2-1.8c.5-1,.8-2.2.8-3.8h0l.2-.1Z"/>
  <path class="cls-1" d="M295.3,31.65h-5v-9.1c0-1.6-.2-2.7-.5-3.4-.5-1.1-1.4-1.6-2.8-1.6s-2.3.7-3,2c-.4.9-.6,2.1-.6,3.4v8.6h-5v-13.8c0-1.2,0-2.3-.1-3.4h4.9v2.6c1.6-1.9,3.5-2.9,5.7-2.9,4.2,0,6.3,2.1,6.3,6.3v11.1h0l.1.2Z"/>
  <rect class="cls-1" x="321.39" width="15.5" height="3.36"/>
  <rect class="cls-1" x="311.41" y="10.21" width="27.19" height="3.36" transform="translate(86.78 233.3) rotate(-45)"/>
  <rect class="cls-1" x="327.46" y="6.07" width="15.5" height="3.36" transform="translate(327.46 342.96) rotate(-90)"/>
</svg>