<?xml version="1.0" encoding="UTF-8"?>
<svg id="_图层_1" xmlns="http://www.w3.org/2000/svg" version="1.1" viewBox="0 0 295.4 32">
  <!-- Generator: Adobe Illustrator 30.0.0, SVG Export Plug-In . SVG Version: 2.1.1 Build 123)  -->
  <defs>
    <style>
      .st0 {
        fill: #0a2b6f;
      }
    </style>
  </defs>
  <path class="st0" d="M20,17.8c0,2.6-1.1,4.6-3.3,6-1.9,1.2-4.2,1.7-6.9,1.7s-5.2-.6-6.8-1.8c-1.9-1.4-2.9-3.4-2.9-6.2h5.3c0,2.8,1.6,4.2,4.5,4.2s2.3-.3,3.1-.9c1-.7,1.5-1.6,1.5-2.7s-.7-2-2.1-2.6c-1-.3-2.4-.7-4.3-1.3-2.4-.7-4.1-1.5-5.1-2.2-1.6-1.2-2.4-2.8-2.4-4.8S1.6,2.9,3.7,1.6c1.8-1.1,4-1.6,6.6-1.6,5.9,0,8.9,2.4,9,7.1h-5.3c-.2-2.4-1.6-3.5-4-3.5s-2,.3-2.7.8c-.8.6-1.2,1.4-1.2,2.4s.3,1.3.8,1.7c.5.4,1.8.9,3.7,1.6,1.4.4,2.7.9,4.1,1.3,1.8.7,3.1,1.4,3.9,2.2,1,1,1.5,2.4,1.5,4.2h0Z"/>
  <path class="st0" d="M40.1,18.9c0,2.2-.9,3.8-2.6,5-1.5,1-3.4,1.5-5.7,1.5s-5-.8-6.6-2.3c-1.6-1.5-2.3-3.7-2.3-6.5s.8-5.1,2.4-6.7c1.6-1.7,3.8-2.5,6.7-2.5s4.1.5,5.4,1.5c1.5,1.1,2.4,2.7,2.6,4.9h-4.9c0-2.3-1.1-3.4-3.1-3.4s-3.9,2-3.9,6,1.3,6.1,3.8,6.1,3.1-1.2,3.2-3.7h5.1v.2h0Z"/>
  <path class="st0" d="M48.9,4.4h-5.2V.5h5.2v4ZM48.8,25.1h-5V7.9h5v17.2Z"/>
  <path class="st0" d="M69.9,17.5h-12.4c0,1.4.3,2.6.9,3.5.7,1,1.7,1.6,3.1,1.6,2,0,3.2-1,3.4-3h4.8c-.3,2.1-1.3,3.6-2.9,4.6-1.4.9-3.2,1.3-5.4,1.3s-4.9-.7-6.5-2.2-2.3-3.6-2.3-6.4.8-5.2,2.3-6.8,3.7-2.5,6.6-2.5,6.3,1.5,7.6,4.6c.5,1.2.7,3,.7,5.4h0ZM65.1,14.6c0-2.8-1.2-4.2-3.6-4.2s-2.2.4-2.9,1.2c-.7.8-1.1,1.8-1.1,3h7.5Z"/>
  <path class="st0" d="M90.5,25.1h-5v-9.1c0-1.6-.2-2.7-.5-3.4-.5-1.1-1.4-1.6-2.8-1.6s-2.3.7-3,2c-.4.9-.6,2.1-.6,3.4v8.6h-5v-13.8c0-1.2,0-2.3-.1-3.4h4.9v2.6c1.6-1.9,3.5-2.9,5.7-2.9,4.2,0,6.3,2.1,6.3,6.3v11.1h0Z"/>
  <path class="st0" d="M111.2,18.9c0,2.2-.9,3.8-2.6,5-1.5,1-3.4,1.5-5.7,1.5s-5-.8-6.6-2.3-2.3-3.7-2.3-6.5.8-5.1,2.4-6.7c1.6-1.7,3.8-2.5,6.7-2.5s4.1.5,5.4,1.5c1.5,1.1,2.4,2.7,2.6,4.9h-4.9c0-2.3-1.1-3.4-3.1-3.4s-3.9,2-3.9,6,1.3,6.1,3.8,6.1,3.1-1.2,3.2-3.7h5.1v.2h0Z"/>
  <path class="st0" d="M131.3,17.5h-12.4c0,1.4.3,2.6.9,3.5.7,1,1.7,1.6,3.1,1.6,2,0,3.2-1,3.4-3h4.8c-.3,2.1-1.3,3.6-2.9,4.6-1.4.9-3.2,1.3-5.4,1.3s-4.9-.7-6.5-2.2-2.3-3.6-2.3-6.4.8-5.2,2.3-6.8c1.5-1.7,3.7-2.5,6.6-2.5s6.3,1.5,7.6,4.6c.5,1.2.7,3,.7,5.4h0ZM126.5,14.6c0-2.8-1.2-4.2-3.6-4.2s-2.2.4-2.9,1.2c-.7.8-1.1,1.8-1.1,3h7.5Z"/>
  <path class="st0" d="M158.3,16.4c0,2.8-.8,5.1-2.5,6.6-1.7,1.6-4,2.4-6.8,2.4s-5.2-.8-6.8-2.4c-1.7-1.6-2.5-3.8-2.5-6.7s.9-5,2.6-6.6c1.7-1.6,4-2.4,6.8-2.4s5.1.8,6.8,2.4c1.6,1.6,2.5,3.8,2.5,6.6h0ZM153.1,16.5c0-1.7-.3-3-.9-4.1-.7-1.3-1.8-2-3.3-2-2.7,0-4.1,2-4.1,6s1.4,6.1,4.1,6.1,2.6-.7,3.3-2c.6-1.1.9-2.4.9-4.1Z"/>
  <path class="st0" d="M172.4,3.8c-.6,0-1.1,0-1.6,0-1.1,0-1.8.3-2.1.7-.3.4-.4,1.1-.4,2v1.4h4v3.3h-4v13.9h-5v-13.9h-3.3v-3.3h3.3v-1.4c0-4.1,2-6.1,5.9-6.1s1.9,0,3.3.2v3.3h0Z"/>
  <path class="st0" d="M204.3,12.7c0,4.7-1.4,8-4.1,9.9-2.3,1.7-5.8,2.5-10.5,2.5h-7.7V.5h8.5c9.1,0,13.7,4.1,13.7,12.2h0ZM198.8,12.7c0-3-.7-5.2-2.1-6.5-1.4-1.3-3.6-2-6.6-2h-2.7v17.1h2.5c3.1,0,5.3-.7,6.7-2.1,1.4-1.4,2.1-3.5,2.1-6.5h0Z"/>
  <path class="st0" d="M224.3,17.5h-12.4c0,1.4.3,2.6.9,3.5.7,1,1.7,1.6,3.1,1.6,2,0,3.2-1,3.4-3h4.8c-.3,2.1-1.3,3.6-2.9,4.6-1.4.9-3.2,1.3-5.4,1.3s-4.9-.7-6.5-2.2-2.3-3.6-2.3-6.4.8-5.2,2.3-6.8c1.5-1.7,3.7-2.5,6.6-2.5s6.3,1.5,7.6,4.6c.5,1.2.7,3,.7,5.4h0ZM219.5,14.6c0-2.8-1.2-4.2-3.6-4.2s-2.2.4-2.9,1.2c-.7.8-1.1,1.8-1.1,3h7.5Z"/>
  <path class="st0" d="M242.9,20c0,2-.9,3.5-2.7,4.5-1.4.7-3.2,1.1-5.4,1.1-5.1,0-7.7-2-7.7-5.9h5c0,2,1,3.1,2.9,3.1s1.4-.2,2-.6c.6-.4.9-1,.9-1.7,0-1.1-1.1-1.9-3.3-2.4-2.5-.6-4.1-1.1-4.6-1.4-1.6-.8-2.4-2.1-2.4-3.9s.8-3.2,2.5-4.1c1.3-.7,2.9-1.1,4.9-1.1,4.7,0,7.2,1.9,7.4,5.6h-4.9c0-1.8-.9-2.8-2.6-2.8s-1.3.1-1.7.4c-.6.3-.9.8-.9,1.5,0,1,1.1,1.8,3.3,2.3,2.5.6,4.1,1.1,4.8,1.4,1.7.8,2.5,2.2,2.5,4h0Z"/>
  <path class="st0" d="M252.1,4.6h-5.2V.6h5.2v4ZM252,25.2h-5V8h5v17.2Z"/>
  <path class="st0" d="M273.9,8.1c0,2.6-.1,4.2-.1,4.8v9.2c0,3.4-.7,5.9-2.1,7.5-1.4,1.6-3.7,2.5-6.9,2.5s-4-.3-5.3-1c-1.8-.9-2.7-2.3-2.7-4.3v-.3h4.7c0,1.7,1.2,2.6,3.4,2.6s2.6-.4,3.2-1.3c.5-.7.8-1.8.9-3.3v-2.4c-1.3,1.9-3.1,2.9-5.5,2.9s-4.3-.8-5.7-2.5c-1.2-1.5-1.9-3.6-1.9-6.1s.6-4.5,1.9-6.1c1.4-1.7,3.3-2.6,5.7-2.6s4.4,1,5.7,3v-2.6h4.8,0ZM268.9,16.1c0-1.5-.3-2.7-.9-3.6-.7-1.2-1.7-1.8-3.1-1.8s-2.5.6-3.2,1.8c-.6,1-.9,2.2-.9,3.8s.3,2.8.8,3.7c.7,1.2,1.7,1.8,3.1,1.8s2.5-.6,3.2-1.8c.5-1,.8-2.2.8-3.8h0Z"/>
  <path class="st0" d="M295.4,25.2h-5v-9.1c0-1.6-.2-2.7-.5-3.4-.5-1.1-1.4-1.6-2.8-1.6s-2.3.7-3,2c-.4.9-.6,2.1-.6,3.4v8.6h-5v-13.8c0-1.2,0-2.3-.1-3.4h4.9v2.6c1.6-1.9,3.5-2.9,5.7-2.9,4.2,0,6.3,2.1,6.3,6.3v11.1h0Z"/>
</svg>